<mxfile host="app.diagrams.net" modified="2020-12-23T06:57:51.456Z" agent="5.0 (Macintosh; Intel Mac OS X 11_0_1) AppleWebKit/537.36 (KHTML, like Gecko) Chrome/87.0.4280.88 Safari/537.36" etag="f-d1iN06g9f0Md7nDArK" version="13.10.1" type="github">
  <diagram id="s3dXFgs1y9wC6QJwgkDh" name="第 1 页">
    <mxGraphModel dx="1426" dy="719" grid="1" gridSize="10" guides="1" tooltips="1" connect="1" arrows="1" fold="1" page="1" pageScale="1" pageWidth="827" pageHeight="1169" math="0" shadow="0">
      <root>
        <mxCell id="0" />
        <mxCell id="1" parent="0" />
        <mxCell id="KaxL7S6oZbL--OxM16LW-32" value="" style="rounded=0;whiteSpace=wrap;html=1;strokeColor=#000000;fillColor=#96FFAB;gradientColor=none;flipH=1;" vertex="1" parent="1">
          <mxGeometry x="30" y="210" width="30" height="60" as="geometry" />
        </mxCell>
        <mxCell id="KaxL7S6oZbL--OxM16LW-33" value="" style="rounded=0;whiteSpace=wrap;html=1;strokeColor=#000000;fillColor=none;gradientColor=none;flipH=1;" vertex="1" parent="1">
          <mxGeometry x="60" y="210" width="30" height="60" as="geometry" />
        </mxCell>
        <mxCell id="KaxL7S6oZbL--OxM16LW-34" value="" style="rounded=0;whiteSpace=wrap;html=1;strokeColor=#000000;fillColor=#96FFAB;gradientColor=none;flipH=1;" vertex="1" parent="1">
          <mxGeometry x="270" y="210" width="30" height="60" as="geometry" />
        </mxCell>
        <mxCell id="KaxL7S6oZbL--OxM16LW-35" value="" style="rounded=0;whiteSpace=wrap;html=1;strokeColor=#000000;fillColor=#96FFAB;gradientColor=none;flipH=1;" vertex="1" parent="1">
          <mxGeometry x="300" y="210" width="30" height="60" as="geometry" />
        </mxCell>
        <mxCell id="KaxL7S6oZbL--OxM16LW-36" value="" style="rounded=0;whiteSpace=wrap;html=1;strokeColor=#000000;fillColor=#96FFAB;gradientColor=none;flipH=1;" vertex="1" parent="1">
          <mxGeometry x="330" y="210" width="30" height="60" as="geometry" />
        </mxCell>
        <mxCell id="KaxL7S6oZbL--OxM16LW-37" value="" style="rounded=0;whiteSpace=wrap;html=1;strokeColor=#000000;fillColor=#96FFAB;gradientColor=none;flipH=1;" vertex="1" parent="1">
          <mxGeometry x="360" y="210" width="30" height="60" as="geometry" />
        </mxCell>
        <mxCell id="KaxL7S6oZbL--OxM16LW-38" value="" style="rounded=0;whiteSpace=wrap;html=1;strokeColor=#000000;fillColor=#96FFAB;gradientColor=none;flipH=1;" vertex="1" parent="1">
          <mxGeometry x="390" y="210" width="30" height="60" as="geometry" />
        </mxCell>
        <mxCell id="KaxL7S6oZbL--OxM16LW-39" value="" style="rounded=0;whiteSpace=wrap;html=1;strokeColor=#000000;fillColor=#96FFAB;gradientColor=none;flipH=1;" vertex="1" parent="1">
          <mxGeometry x="420" y="210" width="30" height="60" as="geometry" />
        </mxCell>
        <mxCell id="KaxL7S6oZbL--OxM16LW-40" value="" style="rounded=0;whiteSpace=wrap;html=1;strokeColor=#000000;fillColor=#96FFAB;gradientColor=none;flipH=1;" vertex="1" parent="1">
          <mxGeometry x="450" y="210" width="30" height="60" as="geometry" />
        </mxCell>
        <mxCell id="KaxL7S6oZbL--OxM16LW-41" value="" style="rounded=0;whiteSpace=wrap;html=1;strokeColor=#000000;fillColor=#96FFAB;gradientColor=none;flipH=1;" vertex="1" parent="1">
          <mxGeometry x="480" y="210" width="30" height="60" as="geometry" />
        </mxCell>
        <mxCell id="KaxL7S6oZbL--OxM16LW-45" value="" style="rounded=0;whiteSpace=wrap;html=1;strokeColor=#000000;fillColor=#96FFAB;gradientColor=none;flipH=1;" vertex="1" parent="1">
          <mxGeometry x="1200" y="210" width="30" height="60" as="geometry" />
        </mxCell>
        <mxCell id="KaxL7S6oZbL--OxM16LW-46" value="" style="rounded=0;whiteSpace=wrap;html=1;strokeColor=#000000;fillColor=#96FFAB;gradientColor=none;flipH=1;" vertex="1" parent="1">
          <mxGeometry x="1290" y="210" width="30" height="60" as="geometry" />
        </mxCell>
        <mxCell id="KaxL7S6oZbL--OxM16LW-47" value="" style="rounded=0;whiteSpace=wrap;html=1;strokeColor=#000000;fillColor=#96FFAB;gradientColor=none;flipH=1;" vertex="1" parent="1">
          <mxGeometry x="1380" y="210" width="30" height="60" as="geometry" />
        </mxCell>
        <mxCell id="KaxL7S6oZbL--OxM16LW-48" value="" style="rounded=0;whiteSpace=wrap;html=1;strokeColor=#000000;fillColor=#96FFAB;gradientColor=none;flipH=1;" vertex="1" parent="1">
          <mxGeometry x="1470" y="210" width="30" height="60" as="geometry" />
        </mxCell>
        <mxCell id="KaxL7S6oZbL--OxM16LW-49" value="" style="rounded=0;whiteSpace=wrap;html=1;strokeColor=#000000;fillColor=#96FFAB;gradientColor=none;flipH=1;" vertex="1" parent="1">
          <mxGeometry x="1560" y="210" width="30" height="60" as="geometry" />
        </mxCell>
        <mxCell id="KaxL7S6oZbL--OxM16LW-50" value="" style="rounded=0;whiteSpace=wrap;html=1;strokeColor=#000000;fillColor=#96FFAB;gradientColor=none;flipH=1;" vertex="1" parent="1">
          <mxGeometry x="1650" y="210" width="30" height="60" as="geometry" />
        </mxCell>
        <mxCell id="KaxL7S6oZbL--OxM16LW-51" value="Bool" style="text;html=1;align=center;verticalAlign=middle;resizable=0;points=[];autosize=1;" vertex="1" parent="1">
          <mxGeometry x="26" y="170" width="40" height="20" as="geometry" />
        </mxCell>
        <mxCell id="KaxL7S6oZbL--OxM16LW-52" value="" style="shape=curlyBracket;whiteSpace=wrap;html=1;rounded=1;strokeColor=#000000;fillColor=none;gradientColor=none;direction=south;" vertex="1" parent="1">
          <mxGeometry x="30" y="190" width="30" height="10" as="geometry" />
        </mxCell>
        <mxCell id="KaxL7S6oZbL--OxM16LW-54" value="" style="rounded=0;whiteSpace=wrap;html=1;strokeColor=#000000;fillColor=none;gradientColor=none;flipH=1;" vertex="1" parent="1">
          <mxGeometry x="90" y="210" width="30" height="60" as="geometry" />
        </mxCell>
        <mxCell id="KaxL7S6oZbL--OxM16LW-55" value="" style="rounded=0;whiteSpace=wrap;html=1;strokeColor=#000000;fillColor=none;gradientColor=none;flipH=1;" vertex="1" parent="1">
          <mxGeometry x="120" y="210" width="30" height="60" as="geometry" />
        </mxCell>
        <mxCell id="KaxL7S6oZbL--OxM16LW-56" value="" style="rounded=0;whiteSpace=wrap;html=1;strokeColor=#000000;fillColor=none;gradientColor=none;flipH=1;" vertex="1" parent="1">
          <mxGeometry x="150" y="210" width="30" height="60" as="geometry" />
        </mxCell>
        <mxCell id="KaxL7S6oZbL--OxM16LW-57" value="" style="rounded=0;whiteSpace=wrap;html=1;strokeColor=#000000;fillColor=none;gradientColor=none;flipH=1;" vertex="1" parent="1">
          <mxGeometry x="180" y="210" width="30" height="60" as="geometry" />
        </mxCell>
        <mxCell id="KaxL7S6oZbL--OxM16LW-58" value="" style="rounded=0;whiteSpace=wrap;html=1;strokeColor=#000000;fillColor=none;gradientColor=none;flipH=1;" vertex="1" parent="1">
          <mxGeometry x="210" y="210" width="30" height="60" as="geometry" />
        </mxCell>
        <mxCell id="KaxL7S6oZbL--OxM16LW-59" value="" style="rounded=0;whiteSpace=wrap;html=1;strokeColor=#000000;fillColor=none;gradientColor=none;flipH=1;" vertex="1" parent="1">
          <mxGeometry x="240" y="210" width="30" height="60" as="geometry" />
        </mxCell>
        <mxCell id="KaxL7S6oZbL--OxM16LW-60" value="" style="shape=curlyBracket;whiteSpace=wrap;html=1;rounded=1;strokeColor=#000000;fillColor=none;gradientColor=none;direction=south;" vertex="1" parent="1">
          <mxGeometry x="270" y="180" width="240" height="20" as="geometry" />
        </mxCell>
        <mxCell id="KaxL7S6oZbL--OxM16LW-61" value="Int64" style="text;html=1;align=center;verticalAlign=middle;resizable=0;points=[];autosize=1;" vertex="1" parent="1">
          <mxGeometry x="370" y="158" width="40" height="20" as="geometry" />
        </mxCell>
        <mxCell id="KaxL7S6oZbL--OxM16LW-62" value="padding" style="text;html=1;align=center;verticalAlign=middle;resizable=0;points=[];autosize=1;fontStyle=1;fontColor=#FF0080;" vertex="1" parent="1">
          <mxGeometry x="135" y="230" width="60" height="20" as="geometry" />
        </mxCell>
      </root>
    </mxGraphModel>
  </diagram>
</mxfile>
